# xmcd
#
# Track frame offsets:
#	150
#	18037
#	39370
#	56031
#	69518
#	90990
#	108040
#	122228
#	136116
#	152436
#	166705
#	182048
#	196639
#
# Disc length: 2839 seconds
#
# Revision: 1
# Processed by: cddbd v1.5.2PL0 Copyright (c) Steve Scherf et al.
# Submitted via: audiograbber 1.83.01
#
DISCID=8f0b150d
DTITLE=Dierks Bentley - The Mountain
DYEAR=2018
DGENRE=Country
TTITLE0=Burning Man (featuring Brothers Osborne)
TTITLE1=The Mountain
TTITLE2=Living
TTITLE3=Woman, Amen
TTITLE4=You Can't Bring Me Down
TTITLE5=Nothing On But The Stars
TTITLE6=Goodbye In Telluride
TTITLE7=My Religion
TTITLE8=One Way
TTITLE9=Son Of The Sun
TTITLE10=Stranger To Myself
TTITLE11=Travelin' Light (featuring Brandi Carlile)
TTITLE12=How I'm Going Out
EXTD=YEAR: 2018
EXTT0=
EXTT1=
EXTT2=
EXTT3=
EXTT4=
EXTT5=
EXTT6=
EXTT7=
EXTT8=
EXTT9=
EXTT10=
EXTT11=
EXTT12=
PLAYORDER=
